<svg width="425" height="500" xmlns="http://www.w3.org/2000/svg">
 <style type="text/css">.st0{fill:#6E97CD;}
	.st1{fill:#84AEDC;}
	.st2{fill:#A7D1F0;}
	.st3{fill:#5B191D;}
	.st4{fill:#ECE6DA;}
	.st5{fill:#F8AD3E;}
	.st6{fill:#FFFFFF;}
	.st7{fill:#003B5C;}
	.st8{fill:#000D28;}
	.st9{fill:#FDCF60;}
	.st10{fill:#002743;}
	.st11{fill:#FFC389;}
	.st12{fill:#F1531E;}
	.st13{fill:#FF7233;}
	.st14{fill:#F9FFFF;}
	.st15{fill:#9C9C92;}
	.st16{fill:#F75B23;}
	.st17{fill:#DBDBDB;}
	.st18{fill:#C4C6C8;}
	.st19{fill:#EBEBEC;}
	.st20{fill:#6CC482;}
	.st21{fill:#ADC3D1;}
	.st22{opacity:0.5;fill:#FFFFFF;}
	.st23{fill:#0F0C0F;}
	.st24{fill:#2E2C2E;}
	.st25{fill:#888584;}
	.st26{opacity:0.1;}
	.st27{fill:#FFC74B;}
	.st28{fill:#48B971;}
	.st29{fill:#82CDBE;}
	.st30{opacity:0.2;fill:#FFFFFF;}
	.st31{fill:#D6A433;}
	.st32{fill:#290507;}
	.st33{fill:#FFDD58;}
	.st34{fill:#9E3B48;}
	.st35{fill:#BB4757;}
	.st36{fill:#812D38;}
	.st37{fill:#B2DBEE;}
	.st38{fill:#F15F40;}
	.st39{fill:#8B5CB8;}
	.st40{fill:#B7472F;}
	.st41{fill:#73CFA8;}
	.st42{fill:#56947B;}
	.st43{fill:#F9CD6C;}
	.st44{fill:#BCD1CA;}
	.st45{fill:#D36C4B;}
	.st46{fill:#C2C3C5;}
	.st47{fill:#B72D28;}
	.st48{fill:#DC3834;}
	.st49{fill:#85341E;}
	.st50{fill:#47A244;}
	.st51{fill:#307E35;}
	.st52{fill:#00BFF3;}
	.st53{fill:#C1D44A;}
	.st54{fill:#00AA5C;}
	.st55{fill:#007C9E;}
	.st56{opacity:0.5;}
	.st57{opacity:0.8;}
	.st58{fill:#897F7D;}
	.st59{fill:#55504F;}</style>

 <g>
  <title>background</title>
  <rect fill="none" id="canvas_background" height="502" width="427" y="-1" x="-1"/>
 </g>
 <g>
  <title>Layer 1</title>
  <g stroke="null" id="Layer_10">
   <g stroke="null" id="svg_163">
    <path stroke="null" class="st17" d="m393.04734,500.02311l-361.79468,0c-16.28214,0 -29.25266,-13.24649 -29.25266,-29.25266l0,-439.61779c0,-16.28214 13.24649,-29.25266 29.25266,-29.25266l361.79468,0c16.28214,0 29.25266,13.24649 29.25266,29.25266l0,439.61779c0,16.00617 -13.24649,29.25266 -29.25266,29.25266z" id="svg_164"/>
    <path stroke="null" class="st6" d="m386.42409,477.39369l-348.54819,0c-9.38293,0 -16.83408,-7.45115 -16.83408,-16.83408l0,-419.19612c0,-9.38293 7.45115,-16.83408 16.83408,-16.83408l348.54819,0c9.38293,0 16.83408,7.45115 16.83408,16.83408l0,418.92015c-0.27597,9.38293 -7.72712,17.11005 -16.83408,17.11005z" id="svg_165"/>
    <rect stroke="null" x="301.97774" y="243.92436" class="st18" width="11.03874" height="233.46933" id="svg_166"/>
    <rect stroke="null" x="307.49711" y="243.92436" class="st19" width="5.51937" height="233.46933" id="svg_167"/>
    <g stroke="null" id="svg_168">
     <circle stroke="null" class="st20" cx="73.19987" cy="262.69021" r="18.76585" id="svg_169"/>
     <circle stroke="null" class="st20" cx="127.28969" cy="262.69021" r="18.76585" id="svg_170"/>
     <circle stroke="null" class="st20" cx="181.10354" cy="262.69021" r="18.76585" id="svg_171"/>
     <circle stroke="null" class="st20" cx="73.19987" cy="308.50098" r="18.76585" id="svg_172"/>
     <circle stroke="null" class="st20" cx="127.28969" cy="308.50098" r="18.76586" id="svg_173"/>
     <circle stroke="null" class="st20" cx="181.10354" cy="308.50098" r="18.76586" id="svg_174"/>
     <path stroke="null" class="st20" d="m241.81661,312.64051l-17.66198,0c-5.79534,0 -10.21083,-4.69146 -10.21083,-10.21083l0,-48.29448c0,-5.79534 4.69146,-10.21083 10.21083,-10.21083l17.66198,0c5.79534,0 10.21083,4.69146 10.21083,10.21083l0,48.29448c0.27597,5.79534 -4.4155,10.21083 -10.21083,10.21083z" id="svg_175"/>
     <path stroke="null" class="st20" d="m244.30033,373.07761l-22.62942,0c-4.4155,0 -7.72712,-3.58759 -7.72712,-7.72712l0,-37.53171c0,-4.4155 3.58759,-7.72712 7.72712,-7.72712l22.62942,0c4.4155,0 7.72712,3.58759 7.72712,7.72712l0,37.53171c0.27597,4.13953 -3.31162,7.72712 -7.72712,7.72712z" id="svg_176"/>
     <circle stroke="null" class="st20" cx="73.19987" cy="354.31175" r="18.76585" id="svg_177"/>
     <circle stroke="null" class="st20" cx="127.28969" cy="354.31175" r="18.76586" id="svg_178"/>
     <circle stroke="null" class="st20" cx="181.10354" cy="354.31175" r="18.76586" id="svg_179"/>
    </g>
    <path stroke="null" class="st21" d="m372.07373,221.01897l-317.36375,0c-6.62324,0 -12.14261,-5.51937 -12.14261,-12.14261l0,-128.32534c0,-6.62324 5.51937,-12.14261 12.14261,-12.14261l317.36375,0c6.62324,0 12.14261,5.51937 12.14261,12.14261l0,128.32534c-0.27597,6.62324 -5.51937,12.14261 -12.14261,12.14261z" id="svg_180"/>
    <path stroke="null" class="st22" d="m146.88345,197.56165c-0.55194,0 -1.37984,-0.27597 -1.93178,-0.82791c-1.10387,-1.10387 -1.10387,-2.75968 0,-3.86356l105.14399,-105.14399c1.10387,-1.10387 2.75968,-1.10387 3.86356,0c1.10387,1.10387 1.10387,2.75968 0,3.86356l-105.14399,105.14399c-0.82791,0.55194 -1.37984,0.82791 -1.93178,0.82791z" id="svg_181"/>
    <path stroke="null" class="st22" d="m194.35003,185.41904c-0.55194,0 -1.37984,-0.27597 -1.93178,-0.82791c-1.10387,-1.10387 -1.10387,-2.75968 0,-3.86356l54.64176,-54.64176c1.10387,-1.10387 2.75968,-1.10387 3.86356,0c1.10387,1.10387 1.10387,2.75968 0,3.86356l-54.64176,54.64176c-0.55194,0.55194 -1.10387,0.82791 -1.93178,0.82791z" id="svg_182"/>
   </g>
  </g>
 </g>
</svg>