<svg width="890" height="980" xmlns="http://www.w3.org/2000/svg">
 <style type="text/css">.st0{fill:#6E97CD;}
	.st1{fill:#84AEDC;}
	.st2{fill:#A7D1F0;}
	.st3{fill:#5B191D;}
	.st4{fill:#ECE6DA;}
	.st5{fill:#F8AD3E;}
	.st6{fill:#FFFFFF;}
	.st7{fill:#003B5C;}
	.st8{fill:#000D28;}
	.st9{fill:#FDCF60;}
	.st10{fill:#002743;}
	.st11{fill:#FFC389;}
	.st12{fill:#F1531E;}
	.st13{fill:#FF7233;}
	.st14{fill:#F9FFFF;}
	.st15{fill:#9C9C92;}
	.st16{fill:#F75B23;}
	.st17{fill:#DBDBDB;}
	.st18{fill:#C4C6C8;}
	.st19{fill:#EBEBEC;}
	.st20{fill:#6CC482;}
	.st21{fill:#ADC3D1;}
	.st22{opacity:0.5;fill:#FFFFFF;}
	.st23{fill:#0F0C0F;}
	.st24{fill:#2E2C2E;}
	.st25{fill:#888584;}
	.st26{opacity:0.1;}
	.st27{fill:#FFC74B;}
	.st28{fill:#48B971;}
	.st29{fill:#82CDBE;}
	.st30{opacity:0.2;fill:#FFFFFF;}
	.st31{fill:#D6A433;}
	.st32{fill:#290507;}
	.st33{fill:#FFDD58;}
	.st34{fill:#9E3B48;}
	.st35{fill:#BB4757;}
	.st36{fill:#812D38;}
	.st37{fill:#B2DBEE;}
	.st38{fill:#F15F40;}
	.st39{fill:#8B5CB8;}
	.st40{fill:#B7472F;}
	.st41{fill:#73CFA8;}
	.st42{fill:#56947B;}
	.st43{fill:#F9CD6C;}
	.st44{fill:#BCD1CA;}
	.st45{fill:#D36C4B;}
	.st46{fill:#C2C3C5;}
	.st47{fill:#B72D28;}
	.st48{fill:#DC3834;}
	.st49{fill:#85341E;}
	.st50{fill:#47A244;}
	.st51{fill:#307E35;}
	.st52{fill:#00BFF3;}
	.st53{fill:#C1D44A;}
	.st54{fill:#00AA5C;}
	.st55{fill:#007C9E;}
	.st56{opacity:0.5;}
	.st57{opacity:0.8;}
	.st58{fill:#897F7D;}
	.st59{fill:#55504F;}</style>

 <g>
  <title>background</title>
  <rect x="-1" y="-1" width="892" height="982" id="canvas_background" fill="none"/>
 </g>
 <g>
  <title>Layer 1</title>
  <style transform="matrix(35.27640105388491,0,0,35.27640105388491,0,0) " type="text/css">.st0{fill:#6E97CD;}
	.st1{fill:#84AEDC;}
	.st2{fill:#A7D1F0;}
	.st3{fill:#5B191D;}
	.st4{fill:#ECE6DA;}
	.st5{fill:#F8AD3E;}
	.st6{fill:#FFFFFF;}
	.st7{fill:#003B5C;}
	.st8{fill:#000D28;}
	.st9{fill:#FDCF60;}
	.st10{fill:#002743;}
	.st11{fill:#FFC389;}
	.st12{fill:#F1531E;}
	.st13{fill:#FF7233;}
	.st14{fill:#F9FFFF;}
	.st15{fill:#9C9C92;}
	.st16{fill:#F75B23;}
	.st17{fill:#DBDBDB;}
	.st18{fill:#C4C6C8;}
	.st19{fill:#EBEBEC;}
	.st20{fill:#6CC482;}
	.st21{fill:#ADC3D1;}
	.st22{opacity:0.5;fill:#FFFFFF;}
	.st23{fill:#0F0C0F;}
	.st24{fill:#2E2C2E;}
	.st25{fill:#888584;}
	.st26{opacity:0.1;}
	.st27{fill:#FFC74B;}
	.st28{fill:#48B971;}
	.st29{fill:#82CDBE;}
	.st30{opacity:0.2;fill:#FFFFFF;}
	.st31{fill:#D6A433;}
	.st32{fill:#290507;}
	.st33{fill:#FFDD58;}
	.st34{fill:#9E3B48;}
	.st35{fill:#BB4757;}
	.st36{fill:#812D38;}
	.st37{fill:#B2DBEE;}
	.st38{fill:#F15F40;}
	.st39{fill:#8B5CB8;}
	.st40{fill:#B7472F;}
	.st41{fill:#73CFA8;}
	.st42{fill:#56947B;}
	.st43{fill:#F9CD6C;}
	.st44{fill:#BCD1CA;}
	.st45{fill:#D36C4B;}
	.st46{fill:#C2C3C5;}
	.st47{fill:#B72D28;}
	.st48{fill:#DC3834;}
	.st49{fill:#85341E;}
	.st50{fill:#47A244;}
	.st51{fill:#307E35;}
	.st52{fill:#00BFF3;}
	.st53{fill:#C1D44A;}
	.st54{fill:#00AA5C;}
	.st55{fill:#007C9E;}
	.st56{opacity:0.5;}
	.st57{opacity:0.8;}
	.st58{fill:#897F7D;}
	.st59{fill:#55504F;}</style>
  <g stroke="null" transform="rotate(90 404.9687194824218,757.1874389648439) " id="svg_100">
   <g stroke="null" transform="matrix(1.3389017690839484,0,0,1.3389017690839484,487.42334735201484,796.3852998041942) " id="svg_98">
    <title stroke="null" transform="translate(-5.684341886080802e-14,0.7468807697296143) translate(-5.684341886080802e-14,0.7468807697296143) translate(-2.987523078918457,1.4937615394592285) translate(4.4812846183776855,-2.2406423091888428) translate(0.7468807697296143,2.987523078918457) translate(-1.7505018711090088,-6.231786727905273) translate(-0.6551355719566345,5.241084575653076) translate(-3.0709478855133057,-10.932574272155762) translate(-14.725977897644043,28.400100708007812) translate(2.1134934425354004,-10.919715881347656) translate(-10.567466735839844,58.825565338134766) translate(-22.401691436767578,-64.84700012207031) translate(-19.00410270690918,-43.60161209106445) translate(-12.72659683227539,-22.423051834106445) translate(1.9559818506240845,4.64900016784668) translate(4.393872261047363,14.939166069030762) translate(-2.3853347301483154,0) translate(0,-13.609694480895996) ">background</title>
    <rect stroke="null" fill="none" id="svg_96" height="57" width="32" y="-57.77611" x="-77.58377"/>
   </g>
   <g stroke="null" transform="matrix(1.3389017690839484,0,0,1.3389017690839484,487.42334735201484,796.3852998041942) " id="svg_99">
    <title stroke="null" transform="translate(-5.684341886080802e-14,0.7468807697296143) translate(-5.684341886080802e-14,0.7468807697296143) translate(-2.987523078918457,1.4937615394592285) translate(4.4812846183776855,-2.2406423091888428) translate(0.7468807697296143,2.987523078918457) translate(-1.7505018711090088,-6.231786727905273) translate(-0.6551355719566345,5.241084575653076) translate(-3.0709478855133057,-10.932574272155762) translate(-14.725977897644043,28.400100708007812) translate(2.1134934425354004,-10.919715881347656) translate(-10.567466735839844,58.825565338134766) translate(-22.401691436767578,-64.84700012207031) translate(-19.00410270690918,-43.60161209106445) translate(-12.72659683227539,-22.423051834106445) translate(1.9559818506240845,4.64900016784668) translate(4.393872261047363,14.939166069030762) translate(-2.3853347301483154,0) translate(0,-13.609694480895996) ">Layer 1</title>
    <g stroke="null" id="svg_38">
     <g stroke="null" id="svg_39">
      <g stroke="null" id="svg_40">
       <g stroke="null" id="svg_41">
        <g stroke="null" id="svg_94">
         <path stroke="null" class="st46" d="m-73.95042,-5.7761c0,0 0.7,0.4 1.6,2.6c0.3,0.7 1.2,1.1 2,1.1l17.7,0c0.8,0 1.5,-0.4 1.9,-1.1c0.4,-0.7 0.2,-1.6 1.3,-2.7l-24.5,0.1z" id="svg_95"/>
        </g>
        <g stroke="null" id="svg_92">
         <path stroke="null" class="st52" d="m-49.45042,-5.7761l-24.3,0c-0.7,0 -1.2,-0.5 -1.2,-1.2l0,-43.4l2.4,-2.8l22.3,0l2.1,2.8l0,43.4c-0.1,0.7 -0.7,1.2 -1.3,1.2z" id="svg_93"/>
        </g>
        <g stroke="null" id="svg_83">
         <g stroke="null" id="svg_90">
          <path stroke="null" class="st53" d="m-62.15042,-20.9761c0,0 0,0 0,0c-0.4,-0.1 -0.5,-0.3 -0.5,-0.6c0.5,-3 2,-5.8 4.4,-8c0.2,-0.2 0.5,-0.2 0.7,0c0.2,0.2 0.2,0.5 0,0.7c-2.2,2 -3.6,4.6 -4.1,7.4c0,0.4 -0.2,0.5 -0.5,0.5z" id="svg_91"/>
         </g>
         <g stroke="null" id="svg_88">
          <path stroke="null" class="st54" d="m-58.55042,-28.4761c0.3,-3.6 -2.4,-4.6 -4.1,-4.8c-0.2,0 -0.5,0 -0.6,0.2c-0.1,0.1 0,0.2 0,0.4c0.1,0.7 0.1,1.4 0.1,2.1s0.2,1.4 0.6,2c1,1.4 2.7,1 3.4,1" id="svg_89"/>
         </g>
         <g stroke="null" id="svg_86">
          <circle stroke="null" class="st48" cx="-62.55042" cy="-16.3761" r="5.3" id="svg_87"/>
         </g>
         <g stroke="null" id="svg_84">
          <circle stroke="null" class="st6" cx="-64.85042" cy="-18.8761" r="1.2" id="svg_85"/>
         </g>
        </g>
        <g stroke="null" id="svg_81">
         <rect stroke="null" x="-75.05042" y="-45.3761" class="st55" width="26.8" height="8.2" id="svg_82"/>
        </g>
        <g stroke="null" id="svg_74">
         <path stroke="null" class="st6" d="m-70.75042,-42.3761c0,-0.1 0,-0.1 -0.1,-0.2c0,-0.1 -0.1,-0.2 -0.1,-0.2c-0.1,-0.1 -0.2,-0.1 -0.3,-0.2c-0.1,-0.1 -0.3,-0.1 -0.4,-0.1c-0.1,0 -0.2,0 -0.3,0.1c-0.1,0 -0.2,0.1 -0.3,0.2c-0.1,0.1 -0.2,0.3 -0.3,0.4c-0.1,0.2 -0.1,0.4 -0.1,0.7c0,0.2 0,0.4 0.1,0.5c0,0.2 0.1,0.3 0.2,0.5c0.1,0.1 0.2,0.2 0.3,0.3c0.1,0.1 0.3,0.1 0.5,0.1c0.2,0 0.4,-0.1 0.6,-0.2c0.2,-0.1 0.3,-0.3 0.3,-0.6l0.9,0c0,0.2 -0.1,0.4 -0.2,0.6c-0.1,0.2 -0.2,0.4 -0.4,0.5c-0.2,0.1 -0.3,0.2 -0.5,0.3s-0.4,0.1 -0.7,0.1c-0.3,0 -0.5,0 -0.8,-0.1c-0.2,-0.1 -0.4,-0.2 -0.6,-0.4s-0.3,-0.4 -0.4,-0.7c-0.1,-0.3 -0.1,-0.6 -0.1,-1c0,-0.4 0,-0.7 0.1,-1c0.1,-0.3 0.2,-0.5 0.4,-0.7s0.4,-0.3 0.6,-0.4c0.2,-0.1 0.5,-0.1 0.8,-0.1c0.3,0 0.6,0 0.8,0.1c0.2,0.1 0.4,0.2 0.6,0.4s0.3,0.3 0.3,0.5c0.1,0.2 0.1,0.3 0.1,0.5l-1,0l0,0.1z" id="svg_80"/>
         <path stroke="null" class="st6" d="m-68.35042,-41.3761l0,1.9l-0.9,0l0,-4.2l0.9,0l0,1.6l1.6,0l0,-1.6l0.9,0l0,4.2l-0.9,0l0,-1.9l-1.6,0z" id="svg_79"/>
         <path stroke="null" class="st6" d="m-61.95042,-42.9761l-2.2,0l0,0.9l2,0l0,0.7l-2,0l0,1.1l2.3,0l0,0.7l-3.2,0l0,-4.2l3.1,0l0,0.8z" id="svg_78"/>
         <path stroke="null" class="st6" d="m-61.15042,-43.6761l2.1,0c0.3,0 0.5,0 0.7,0.1c0.2,0.1 0.3,0.2 0.4,0.3c0.1,0.1 0.2,0.3 0.2,0.4c0,0.1 0,0.2 0,0.3c0,0.2 -0.1,0.4 -0.2,0.6c-0.1,0.2 -0.3,0.3 -0.5,0.4c0.1,0 0.2,0.1 0.2,0.1s0.1,0.1 0.2,0.2c0,0.1 0.1,0.2 0.1,0.3c0,0.1 0,0.3 0,0.5c0,0.2 0,0.3 0,0.4c0,0.1 0,0.2 0,0.2c0,0.1 0,0.1 0.1,0.1s0.1,0.1 0.1,0.1l0,0.1l-1,0c0,-0.1 -0.1,-0.2 -0.1,-0.3c0,-0.1 0,-0.3 0,-0.5c0,-0.1 0,-0.3 0,-0.4c0,-0.1 0,-0.2 -0.1,-0.2c0,-0.1 -0.1,-0.1 -0.2,-0.1c-0.1,0 -0.2,0 -0.4,0l-0.7,0l0,1.6l-0.9,0l0,-4.2zm1.9,1.8c0.2,0 0.4,0 0.5,-0.1c0.1,-0.1 0.2,-0.2 0.2,-0.4c0,-0.1 0,-0.1 0,-0.2c0,-0.1 0,-0.1 -0.1,-0.2c0,-0.1 -0.1,-0.1 -0.2,-0.1c-0.1,0 -0.2,-0.1 -0.3,-0.1l-1.1,0l0,1.1l1,0z" id="svg_77"/>
         <path stroke="null" class="st6" d="m-56.95042,-43.6761l2.1,0c0.3,0 0.5,0 0.7,0.1c0.2,0.1 0.3,0.2 0.4,0.3c0.1,0.1 0.2,0.3 0.2,0.4c0,0.1 0,0.2 0,0.3c0,0.2 -0.1,0.4 -0.2,0.6c-0.1,0.2 -0.3,0.3 -0.5,0.4c0.1,0 0.2,0.1 0.2,0.1s0.1,0.1 0.2,0.2c0,0.1 0.1,0.2 0.1,0.3c0,0.1 0,0.3 0,0.5c0,0.2 0,0.3 0,0.4c0,0.1 0,0.2 0,0.2c0,0.1 0,0.1 0.1,0.1s0.1,0.1 0.1,0.1l0,0.1l-1,0c0,-0.1 -0.1,-0.2 -0.1,-0.3c0,-0.1 0,-0.3 0,-0.5c0,-0.1 0,-0.3 0,-0.4c0,-0.1 0,-0.2 -0.1,-0.2c0,-0.1 -0.1,-0.1 -0.2,-0.1c-0.1,0 -0.2,0 -0.4,0l-0.9,0l0,1.6l-0.9,0l0,-4.2l0.2,0zm1.9,1.8c0.2,0 0.4,0 0.5,-0.1c0.1,-0.1 0.2,-0.2 0.2,-0.4c0,-0.1 0,-0.1 0,-0.2c0,-0.1 0,-0.1 -0.1,-0.2c0,-0.1 -0.1,-0.1 -0.2,-0.1c-0.1,0 -0.2,-0.1 -0.3,-0.1l-1.1,0l0,1.1l1,0z" id="svg_76"/>
         <path stroke="null" class="st6" d="m-51.05042,-39.4761l-0.9,0l0,-1.6l-1.4,-2.6l1,0l0.9,1.8l0.8,-1.8l1,0l-1.4,2.6l0,1.6z" id="svg_75"/>
        </g>
        <g stroke="null" id="svg_72">
         <path stroke="null" class="st46" d="m-51.15042,-55.7761l-20.8,0c-0.6,0 -1.2,0.5 -1.2,1.2l0,2l23.1,0l0,-2c0,-0.7 -0.5,-1.2 -1.1,-1.2z" id="svg_73"/>
        </g>
        <g stroke="null" id="svg_46">
         <path stroke="null" class="st55" d="m-49.45042,-48.6761l-12.7,0c-0.3,0 -0.5,-0.2 -0.5,-0.5s0.2,-0.5 0.5,-0.5l12.7,0c0.3,0 0.5,0.2 0.5,0.5s-0.2,0.5 -0.5,0.5z" id="svg_47"/>
        </g>
        <g stroke="null" id="svg_44">
         <path stroke="null" class="st55" d="m-64.45042,-48.6761l-1.8,0c-0.3,0 -0.5,-0.2 -0.5,-0.5s0.2,-0.5 0.5,-0.5l1.8,0c0.3,0 0.5,0.2 0.5,0.5s-0.2,0.5 -0.5,0.5z" id="svg_45"/>
        </g>
        <g stroke="null" id="svg_42">
         <path stroke="null" class="st55" d="m-69.85042,-48.6761l-4,0c-0.3,0 -0.5,-0.2 -0.5,-0.5s0.2,-0.5 0.5,-0.5l4,0c0.3,0 0.5,0.2 0.5,0.5s-0.3,0.5 -0.5,0.5z" id="svg_43"/>
        </g>
       </g>
      </g>
     </g>
    </g>
   </g>
  </g>
 </g>
</svg>