<svg width="91" height="31" viewBox="0 0 91 31" fill="none" xmlns="http://www.w3.org/2000/svg">
<path fill-rule="evenodd" clip-rule="evenodd" d="M36.5229 7.45679C38.6974 7.45679 40.6302 7.9431 42.3617 8.91573C44.0933 9.88837 45.4221 11.2257 46.4288 13.0089C47.3952 14.7515 47.8784 16.7373 47.8784 18.9663C47.8784 21.1547 47.3952 23.1405 46.4288 24.8831C45.4624 26.6257 44.1335 28.0036 42.402 28.9763C40.6705 29.9489 38.6974 30.4352 36.5229 30.4352C34.3484 30.4352 32.3753 29.9489 30.6438 28.9763C28.9123 27.9631 27.5834 26.6257 26.617 24.8831C25.6506 23.1405 25.1674 21.1547 25.1674 18.9663C25.1674 16.7373 25.6506 14.7515 26.617 13.0089C27.5834 11.2663 28.9123 9.88837 30.6438 8.91573C32.3753 7.9431 34.3484 7.45679 36.5229 7.45679ZM40.3081 25.6936C41.3953 25.0452 42.2812 24.1131 42.8852 22.9378C43.5295 21.7626 43.8114 20.4252 43.8114 18.9257C43.8114 17.4263 43.4892 16.0889 42.8852 14.9136C42.2812 13.7384 41.4356 12.8063 40.3081 12.1578C39.2208 11.4689 37.9323 11.1447 36.5632 11.1447C35.1941 11.1447 33.9458 11.5094 32.8183 12.1578C31.6908 12.8063 30.8451 13.7384 30.2008 14.9136C29.5968 16.0889 29.2747 17.4263 29.2747 18.9257C29.2747 20.4252 29.5566 21.7626 30.2008 22.9378C30.8451 24.1131 31.6908 25.0452 32.8183 25.6936C33.9055 26.3826 35.1941 26.7068 36.5632 26.7068C37.9323 26.7068 39.2208 26.3421 40.3081 25.6936Z" fill="white"/>
<path d="M61.2072 11.1447C62.2541 11.1447 63.1803 11.3068 63.9857 11.6715C64.791 12.0363 65.5561 12.5631 66.2407 13.2926C66.6836 13.7789 67.2071 14.022 67.8514 14.022C68.2138 14.022 68.5359 13.941 68.7775 13.7384C69.3815 13.3331 69.6634 12.8063 69.6634 12.1984C69.6634 11.7931 69.5426 11.4284 69.2607 11.1042C67.1265 8.63205 64.4286 7.37573 61.2072 7.37573C59.073 7.37573 57.1401 7.86205 55.4489 8.83468C53.7576 9.80731 52.4288 11.1852 51.4624 12.9278C50.5362 14.6705 50.053 16.6563 50.053 18.8852C50.053 21.0331 50.5362 22.9784 51.5026 24.7615C52.469 26.5042 53.8382 27.882 55.5697 28.8952C57.3012 29.9084 59.234 30.3947 61.4085 30.3947C64.3883 30.3947 66.8447 29.4626 68.8178 27.6389C69.1399 27.3147 69.301 26.9499 69.301 26.5042C69.301 25.9368 69.0594 25.4505 68.5359 25.0047C68.2138 24.7615 67.8514 24.6399 67.4487 24.6399C66.9655 24.6399 66.442 24.8426 65.9185 25.2073C64.7507 26.1799 63.2608 26.6663 61.4085 26.6663C59.9991 26.6663 58.7106 26.342 57.6233 25.6531C56.4958 25.0047 55.6502 24.0726 55.0462 22.8973C54.4422 21.722 54.12 20.3847 54.12 18.8852C54.12 16.5347 54.7643 14.6705 56.0932 13.252C57.3817 11.8742 59.073 11.1447 61.2072 11.1447Z" fill="white"/>
<path d="M89.5959 27.2337L81.6229 17.3858L89.1933 10.6179C89.6362 10.2532 89.8375 9.80738 89.8375 9.19948C89.8375 8.71317 89.6765 8.26738 89.3141 7.90264C88.9517 7.45685 88.5087 7.25422 87.9047 7.25422C87.4215 7.25422 86.9785 7.41632 86.6161 7.78106L76.6297 16.7779V2.35053C76.6297 1.74264 76.4284 1.25632 76.0659 0.891587C75.7035 0.52685 75.2203 0.324219 74.6163 0.324219C74.0123 0.324219 73.5291 0.52685 73.1667 0.891587C72.8042 1.25632 72.6029 1.74264 72.6029 2.35053V28.2063C72.6029 28.8142 72.8042 29.3005 73.1667 29.6653C73.5291 30.03 74.0123 30.2326 74.6163 30.2326C75.2203 30.2326 75.7035 30.03 76.0659 29.6653C76.4284 29.3005 76.6297 28.8142 76.6297 28.2063V21.8842L78.6834 20.0605L86.4953 29.7868C86.898 30.2732 87.3812 30.5163 87.9852 30.5163C88.4684 30.5163 88.8711 30.3542 89.3141 30.03C89.7973 29.6247 90.0389 29.0979 90.0389 28.49C90.0389 28.0037 89.8778 27.5984 89.5959 27.2337Z" fill="white"/>
<path d="M20.5769 0.324219C19.9729 0.324219 19.4896 0.52685 19.087 0.891587C18.6843 1.29685 18.4829 1.78317 18.4829 2.43159V11.1853V14.3869C18.4829 14.3869 18.4829 15.6432 18.4829 16.9805H18.4427C18.4427 17.0211 18.4427 17.0616 18.4829 17.1021C18.4829 17.4669 18.4829 17.8316 18.4829 18.1963C18.4829 20.9521 18.4024 22.7353 16.0266 25.0047C15.7447 25.2479 15.4226 25.4505 15.1004 25.6532C13.9729 26.3421 12.7649 26.6663 11.3958 26.6663C10.0267 26.6663 8.77839 26.3421 7.69116 25.6532C6.56366 24.9642 5.71804 24.0321 5.07375 22.8568C4.42946 21.6816 4.10732 20.3442 4.10732 18.8853C4.10732 17.4263 4.42946 16.089 5.07375 14.9137C5.71804 13.7384 6.60393 12.8063 7.69116 12.1579C8.69786 11.55 9.78509 11.2258 10.9529 11.1447L9.50321 12.6037C8.73812 13.3737 8.73812 14.6705 9.50321 15.4811C10.2683 16.2511 11.5569 16.2511 12.3622 15.4811L17.1138 10.699C17.8789 9.92896 17.8789 8.63211 17.1138 7.82159L12.322 3.03948C11.5569 2.26948 10.2683 2.26948 9.46295 3.03948C8.69786 3.80948 8.69786 5.10632 9.46295 5.91685L10.9931 7.45685C10.8321 7.45685 10.7113 7.45685 10.5502 7.45685C8.57705 7.45685 6.80527 7.94317 5.19455 8.95632C3.58384 9.96948 2.33554 11.3068 1.40937 13.09C0.442946 14.7921 0 16.7374 0 18.8853C0 21.0332 0.483214 22.9784 1.48991 24.7616C2.49661 26.5042 3.82545 27.8821 5.59723 28.8953C7.32875 29.9084 9.26161 30.3947 11.3555 30.3947C13.4495 30.3947 15.3823 29.9084 17.0736 28.8953C18.8051 27.8821 20.1339 26.5042 21.1406 24.7616C22.1473 23.019 22.6305 21.0737 22.6305 18.8853V2.43159C22.6305 1.78317 22.4292 1.29685 22.0668 0.891587C21.7044 0.52685 21.1809 0.324219 20.5769 0.324219Z" fill="white"/>
</svg>
