<svg width="290" height="325" xmlns="http://www.w3.org/2000/svg">
 <style type="text/css">.st0{fill:#6E97CD;}
	.st1{fill:#84AEDC;}
	.st2{fill:#A7D1F0;}
	.st3{fill:#5B191D;}
	.st4{fill:#ECE6DA;}
	.st5{fill:#F8AD3E;}
	.st6{fill:#FFFFFF;}
	.st7{fill:#003B5C;}
	.st8{fill:#000D28;}
	.st9{fill:#FDCF60;}
	.st10{fill:#002743;}
	.st11{fill:#FFC389;}
	.st12{fill:#F1531E;}
	.st13{fill:#FF7233;}
	.st14{fill:#F9FFFF;}
	.st15{fill:#9C9C92;}
	.st16{fill:#F75B23;}
	.st17{fill:#DBDBDB;}
	.st18{fill:#C4C6C8;}
	.st19{fill:#EBEBEC;}
	.st20{fill:#6CC482;}
	.st21{fill:#ADC3D1;}
	.st22{opacity:0.5;fill:#FFFFFF;}
	.st23{fill:#0F0C0F;}
	.st24{fill:#2E2C2E;}
	.st25{fill:#888584;}
	.st26{opacity:0.1;}
	.st27{fill:#FFC74B;}
	.st28{fill:#48B971;}
	.st29{fill:#82CDBE;}
	.st30{opacity:0.2;fill:#FFFFFF;}
	.st31{fill:#D6A433;}
	.st32{fill:#290507;}
	.st33{fill:#FFDD58;}
	.st34{fill:#9E3B48;}
	.st35{fill:#BB4757;}
	.st36{fill:#812D38;}
	.st37{fill:#B2DBEE;}
	.st38{fill:#F15F40;}
	.st39{fill:#8B5CB8;}
	.st40{fill:#B7472F;}
	.st41{fill:#73CFA8;}
	.st42{fill:#56947B;}
	.st43{fill:#F9CD6C;}
	.st44{fill:#BCD1CA;}
	.st45{fill:#D36C4B;}
	.st46{fill:#C2C3C5;}
	.st47{fill:#B72D28;}
	.st48{fill:#DC3834;}
	.st49{fill:#85341E;}
	.st50{fill:#47A244;}
	.st51{fill:#307E35;}
	.st52{fill:#00BFF3;}
	.st53{fill:#C1D44A;}
	.st54{fill:#00AA5C;}
	.st55{fill:#007C9E;}
	.st56{opacity:0.5;}
	.st57{opacity:0.8;}
	.st58{fill:#897F7D;}
	.st59{fill:#55504F;}</style>

 <g>
  <title>background</title>
  <rect fill="none" id="canvas_background" height="327" width="292" y="-1" x="-1"/>
 </g>
 <g>
  <title>Layer 1</title>
  <g id="Layer_5">
   <g id="svg_123">
    <path class="st11" d="m109.4,225.7l0,-120.2c-3.3,-5.1 -8.4,-7.7 -14.3,-7.2c-10.4,1 -9.7,10.4 -10.7,24.8c-1,14.4 -10.1,50.7 -13.1,73.8c-3,23.1 6.7,29.1 6.7,29.1l-74,98.9l108,0l36.8,-53c0,0 13,1.8 29.5,-10.3c9.6,-7 25.1,-23.5 37.5,-36.1l-106.4,0l0,0.2z" id="svg_124"/>
    <path class="st11" d="m196.5,102.7c-3.7,1.7 -17.7,9.7 -13.1,21.5c4.6,11.8 9.1,10.8 12.5,9.4c3.5,-1.4 48.5,-24.7 61.6,-33.6c4.1,-2.8 4.9,-12.1 2.7,-15.7c-2.1,-3.6 -9.9,-7 -16,-4.7c-4.3,1.7 -46.5,22.6 -47.7,23.1z" id="svg_125"/>
    <path class="st11" d="m244,115.8c-16.2,3.7 -16.9,4.2 -26.5,6.6c-13,3.2 -14.6,12.5 -13.3,16.8c1.3,4.3 -1.8,12.4 8.7,12c10.5,-0.4 36.7,-7.5 42.5,-12.4c8.7,-7.2 6,-27 -11.4,-23z" id="svg_126"/>
    <g id="svg_127">
     <g id="svg_128">
      <path class="st6" d="m220.8,242.4c0,9 -7.3,16.3 -16.3,16.3l-80.4,0c-9,0 -16.3,-7.3 -16.3,-16.3l0,-205c0,-9 7.3,-16.3 16.3,-16.3l80.4,0c9,0 16.3,7.3 16.3,16.3l0,205z" id="svg_129"/>
     </g>
     <g id="svg_130">
      <rect x="112.1" y="50.2" class="st7" width="104.5" height="174.8" id="svg_131"/>
     </g>
     <g id="svg_132">
      <circle class="st4" cx="164.3" cy="242" r="10" id="svg_133"/>
     </g>
     <g id="svg_134">
      <path class="st4" d="m181.7,38.3l-32.8,0c-1,0 -1.8,-0.8 -1.8,-1.8l0,0c0,-1 0.8,-1.8 1.8,-1.8l32.8,0c1,0 1.8,0.8 1.8,1.8l0,0c0,1 -0.8,1.8 -1.8,1.8z" id="svg_135"/>
     </g>
    </g>
    <path class="st11" d="m110.9,171c4.6,-16.6 3.6,-31.4 2.7,-49.7c-0.8,-15.7 -8,-23.8 -18.4,-22.8c-10.4,1 -12,70.9 -23.8,98.6c-7.4,17.5 3.5,26.3 5.8,28.4c0,0 15.3,10.3 23.8,-11.8c3.1,-8.2 5.4,-26.4 9.9,-42.7z" id="svg_136"/>
    <g id="svg_137">
     <circle class="st12" cx="164.3" cy="143.3" r="37.7" id="svg_138"/>
     <g id="svg_139">
      <path class="st6" d="m142.7,131.3c0,-0.2 0.1,-0.4 0.4,-0.4l6.1,0c4.3,0 6.7,3.2 6.7,5.9c0,2 0,5 -3.4,6l0,0.1c2.1,0.8 3.5,3 3.5,5.5c0,1.7 0,7.2 -6.9,7.2l-6.1,0c-0.2,0 -0.3,-0.2 -0.3,-0.4l0,-23.9zm5.9,8.9c0,0.1 0.1,0.2 0.2,0.2c0.5,0 1,-0.3 1,-1l0,-2.8c0,-0.6 -0.6,-0.9 -1,-0.9c-0.1,0 -0.2,0.1 -0.2,0.2l0,4.3zm0,10.3c0,0.1 0.1,0.2 0.2,0.2c0.5,0 1,-0.4 1,-1l0,-3.5c0,-0.6 -0.5,-0.9 -1,-0.9c-0.1,0 -0.2,0.1 -0.2,0.3l0,4.9z" id="svg_140"/>
      <path class="st6" d="m163.1,130.9c0.2,0 0.4,0.1 0.4,0.4l0,16.8c0,0.4 0.2,0.7 0.6,0.7c0.4,0 0.6,-0.3 0.6,-0.7l0,-16.8c0,-0.2 0.2,-0.3 0.4,-0.3l5.6,0c0.2,0 0.4,0.1 0.4,0.3l0,17.7c0,3.5 -2.5,6.7 -6.9,6.7c-4.4,0 -6.9,-3.3 -6.9,-6.7l0,-17.7c0,-0.2 0.1,-0.4 0.3,-0.4l5.5,0z" id="svg_141"/>
      <path class="st6" d="m171.6,131.2c0,-0.1 0,-0.3 0.2,-0.3l6,0c0.2,0 0.3,0.1 0.4,0.3l1.6,6.8c0,0.2 0.1,0.3 0.2,0.3c0.1,0 0.2,-0.1 0.2,-0.3l1.5,-6.7c0.1,-0.2 0.2,-0.4 0.4,-0.4l5.7,0c0.2,0 0.3,0.2 0.3,0.4l-4.3,13.9c-0.1,0.5 -0.3,1.4 -0.3,1.8l0,8.3c0,0.2 -0.2,0.4 -0.5,0.4l-6.4,0c-0.2,0 -0.4,-0.2 -0.4,-0.4l0,-8.4c0,-0.5 -0.1,-0.9 -0.3,-1.6l-4.3,-14.1z" id="svg_142"/>
     </g>
    </g>
    <g id="svg_143">
     <g id="svg_144">
      <polygon class="st13" points="112.0999755859375,56.79998779296875 98.60003662109375,75.29998779296875 117.29998779296875,75.29998779296875 127.5,56.79998779296875 " id="svg_145"/>
      <polygon class="st13" points="141.9000244140625,56.79998779296875 136.0999755859375,75.29998779296875 154.5,75.29998779296875 157,56.79998779296875 " id="svg_146"/>
      <polygon class="st14" points="117.29998779296875,75.29998779296875 127.5,56.79998779296875 141.9000244140625,56.79998779296875 136.0999755859375,75.29998779296875 " id="svg_147"/>
      <polygon class="st14" points="157,56.79998779296875 171.79998779296875,56.79998779296875 174.29998779296875,75.29998779296875 154.5,75.29998779296875 " id="svg_148"/>
      <polygon class="st13" points="216.70001220703125,56.79998779296875 230.20001220703125,75.29998779296875 211.4000244140625,75.29998779296875 201.29998779296875,56.79998779296875 " id="svg_149"/>
      <polygon class="st13" points="186.9000244140625,56.79998779296875 192.70001220703125,75.29998779296875 174.29998779296875,75.29998779296875 171.79998779296875,56.79998779296875 " id="svg_150"/>
      <polygon class="st14" points="211.4000244140625,75.29998779296875 201.29998779296875,56.79998779296875 186.9000244140625,56.79998779296875 192.70001220703125,75.29998779296875 " id="svg_151"/>
     </g>
     <rect x="112.1" y="54.6" class="st15" width="104.7" height="2.3" id="svg_152"/>
     <rect x="112.1" y="50.2" class="st4" width="104.7" height="4.3" id="svg_153"/>
    </g>
    <path class="st11" d="m212.4,181.2c-5,2.1 -13.1,9.1 -9.4,17.8c3.6,8.7 13.6,8.1 19,6.7c5.4,-1.4 19.4,-7.2 23.6,-12.9c3.6,-4.9 2.4,-14.7 -5.2,-18c-7.7,-3.2 -22.2,4 -28,6.4z" id="svg_154"/>
    <path class="st11" d="m218.5,150.6c-3.7,1.7 -13.3,7.6 -8.7,19.4c4.6,11.8 16.9,6.1 20.4,4.7c3.5,-1.4 13.9,-5.5 16,-10c2.1,-4.5 1.4,-9.9 -0.8,-13.5c-2.1,-3.6 -9.9,-7 -16,-4.7c-4.4,1.8 -9.7,3.6 -10.9,4.1z" id="svg_155"/>
   </g>
   <path class="st6" d="m108,88.2l0,0c-5.2,0 -9.4,-4.2 -9.4,-9.4l0,-3.5l18.7,0l0,3.5c0,5.2 -4.2,9.4 -9.3,9.4z" id="svg_156"/>
   <path class="st16" d="m126.7,88.2l0,0c-5.2,0 -9.4,-4.2 -9.4,-9.4l0,-3.5l18.7,0l0,3.5c0.1,5.2 -4.1,9.4 -9.3,9.4z" id="svg_157"/>
   <path class="st6" d="m145.3,88.2l0,0c-5.1,0 -9.2,-4.1 -9.2,-9.2l0,-3.7l18.4,0l0,3.7c0,5 -4.1,9.2 -9.2,9.2z" id="svg_158"/>
   <path class="st16" d="m164.8,88.2l-0.7,0c-5.3,0 -9.5,-4.3 -9.5,-9.5l0,-3.3l19.8,0l0,3.3c-0.1,5.2 -4.4,9.5 -9.6,9.5z" id="svg_159"/>
   <path class="st6" d="m183.5,88.2l0,0c-5.1,0 -9.2,-4.1 -9.2,-9.2l0,-3.7l18.4,0l0,3.7c0,5 -4.1,9.2 -9.2,9.2z" id="svg_160"/>
   <path class="st16" d="m202.2,88.2l-0.2,0c-5.1,0 -9.3,-4.2 -9.3,-9.3l0,-3.6l18.7,0l0,3.6c0,5.1 -4.1,9.3 -9.2,9.3z" id="svg_161"/>
   <path class="st6" d="m220.9,88.2l-0.2,0c-5.1,0 -9.3,-4.2 -9.3,-9.3l0,-3.6l18.7,0l0,3.6c0.1,5.1 -4.1,9.3 -9.2,9.3z" id="svg_162"/>
  </g>
 </g>
</svg>